<svg width="10" height="16" viewBox="0 0 10 16" fill="none" xmlns="http://www.w3.org/2000/svg">
<path d="M5.5 6.50002H9.25L8.83333 8.16669H5.5V15.6667H3.83333V8.16669H0.5V6.50002H3.83333V4.94002C3.83333 3.45419 3.98833 2.91502 4.27833 2.37169C4.56251 1.83486 5.00151 1.39586 5.53833 1.11169C6.08167 0.821687 6.62083 0.666687 8.10667 0.666687C8.54167 0.666687 8.92333 0.708354 9.25 0.791687V2.33335H8.10667C7.00333 2.33335 6.6675 2.39835 6.325 2.58169C6.07167 2.71669 5.88333 2.90502 5.74833 3.15835C5.565 3.50085 5.5 3.83669 5.5 4.94002V6.50002Z" fill="white" fill-opacity="0.9"/>
</svg>
