<svg width="20" height="20" viewBox="0 0 20 20" fill="none" xmlns="http://www.w3.org/2000/svg">
<g clip-path="url(#clip0_11_390)">
<path d="M10.0013 7.49996C9.33826 7.49996 8.70238 7.76335 8.23353 8.23219C7.76469 8.70103 7.5013 9.33692 7.5013 9.99996C7.5013 10.663 7.76469 11.2989 8.23353 11.7677C8.70238 12.2366 9.33826 12.5 10.0013 12.5C10.6643 12.5 11.3002 12.2366 11.7691 11.7677C12.2379 11.2989 12.5013 10.663 12.5013 9.99996C12.5013 9.33692 12.2379 8.70103 11.7691 8.23219C11.3002 7.76335 10.6643 7.49996 10.0013 7.49996ZM10.0013 5.83329C11.1064 5.83329 12.1662 6.27228 12.9476 7.05368C13.729 7.83508 14.168 8.89489 14.168 9.99996C14.168 11.105 13.729 12.1648 12.9476 12.9462C12.1662 13.7276 11.1064 14.1666 10.0013 14.1666C8.89623 14.1666 7.83643 13.7276 7.05502 12.9462C6.27362 12.1648 5.83464 11.105 5.83464 9.99996C5.83464 8.89489 6.27362 7.83508 7.05502 7.05368C7.83643 6.27228 8.89623 5.83329 10.0013 5.83329ZM15.418 5.62496C15.418 5.90123 15.3082 6.16618 15.1129 6.36153C14.9175 6.55688 14.6526 6.66663 14.3763 6.66663C14.1 6.66663 13.8351 6.55688 13.6397 6.36153C13.4444 6.16618 13.3346 5.90123 13.3346 5.62496C13.3346 5.34869 13.4444 5.08374 13.6397 4.88839C13.8351 4.69304 14.1 4.58329 14.3763 4.58329C14.6526 4.58329 14.9175 4.69304 15.1129 4.88839C15.3082 5.08374 15.418 5.34869 15.418 5.62496ZM10.0013 3.33329C7.93964 3.33329 7.60297 3.33913 6.6438 3.38163C5.99047 3.41246 5.55214 3.49996 5.14547 3.65829C4.7838 3.79829 4.52297 3.96579 4.24547 4.24413C3.98464 4.49613 3.7841 4.80378 3.6588 5.14413C3.50047 5.55246 3.41297 5.98996 3.38297 6.64246C3.33964 7.56246 3.33464 7.88413 3.33464 9.99996C3.33464 12.0616 3.34047 12.3983 3.38297 13.3575C3.4138 14.01 3.5013 14.4491 3.6588 14.855C3.80047 15.2175 3.96714 15.4783 4.2438 15.755C4.52464 16.035 4.78547 16.2025 5.1438 16.3408C5.55547 16.5 5.9938 16.5883 6.6438 16.6183C7.5638 16.6616 7.88547 16.6666 10.0013 16.6666C12.063 16.6666 12.3996 16.6608 13.3588 16.6183C14.0105 16.5875 14.4496 16.5 14.8563 16.3425C15.2171 16.2016 15.4796 16.0341 15.7563 15.7575C16.0371 15.4766 16.2046 15.2158 16.343 14.8575C16.5013 14.4466 16.5896 14.0075 16.6196 13.3575C16.663 12.4375 16.668 12.1158 16.668 9.99996C16.668 7.93829 16.6621 7.60163 16.6196 6.64246C16.5888 5.99079 16.5013 5.55079 16.343 5.14413C16.2174 4.80413 16.0172 4.49659 15.7571 4.24413C15.5052 3.98316 15.1976 3.7826 14.8571 3.65746C14.4488 3.49913 14.0105 3.41163 13.3588 3.38163C12.4388 3.33829 12.1171 3.33329 10.0013 3.33329ZM10.0013 1.66663C12.2655 1.66663 12.548 1.67496 13.4363 1.71663C14.3238 1.75829 14.928 1.89746 15.4596 2.10413C16.0096 2.31579 16.473 2.60246 16.9363 3.06496C17.36 3.48154 17.6879 3.98545 17.8971 4.54163C18.103 5.07246 18.243 5.67746 18.2846 6.56496C18.3238 7.45329 18.3346 7.73579 18.3346 9.99996C18.3346 12.2641 18.3263 12.5466 18.2846 13.435C18.243 14.3225 18.103 14.9266 17.8971 15.4583C17.6885 16.0148 17.3606 16.5188 16.9363 16.935C16.5196 17.3586 16.0157 17.6864 15.4596 17.8958C14.9288 18.1016 14.3238 18.2416 13.4363 18.2833C12.548 18.3225 12.2655 18.3333 10.0013 18.3333C7.73714 18.3333 7.45464 18.325 6.5663 18.2833C5.6788 18.2416 5.07464 18.1016 4.54297 17.8958C3.98657 17.687 3.48257 17.3591 3.0663 16.935C2.64247 16.5184 2.31458 16.0145 2.10547 15.4583C1.8988 14.9275 1.75964 14.3225 1.71797 13.435C1.6788 12.5466 1.66797 12.2641 1.66797 9.99996C1.66797 7.73579 1.6763 7.45329 1.71797 6.56496C1.75964 5.67663 1.8988 5.07329 2.10547 4.54163C2.314 3.98511 2.64197 3.48106 3.0663 3.06496C3.48269 2.64099 3.98666 2.31307 4.54297 2.10413C5.07464 1.89746 5.67797 1.75829 6.5663 1.71663C7.45464 1.67746 7.73714 1.66663 10.0013 1.66663Z" fill="white" fill-opacity="0.9"/>
</g>
<defs>
<clipPath id="clip0_11_390">
<rect width="20" height="20" fill="white"/>
</clipPath>
</defs>
</svg>
