<svg width="20" height="20" viewBox="0 0 20 20" fill="none" xmlns="http://www.w3.org/2000/svg">
<g clip-path="url(#clip0_11_384)">
<path d="M12.7516 4.62489C12.1182 4.62479 11.5101 4.87333 11.0581 5.31703C10.6062 5.76074 10.3465 6.36414 10.3349 6.99739L10.3116 8.30989C10.3102 8.38036 10.2939 8.44975 10.2639 8.5135C10.2338 8.57724 10.1906 8.63392 10.1371 8.67979C10.0836 8.72567 10.021 8.75971 9.95339 8.77969C9.8858 8.79967 9.81475 8.80514 9.7449 8.79573L8.44406 8.61906C6.7324 8.38573 5.0924 7.59739 3.51906 6.28656C3.02073 9.04489 3.99406 10.9557 6.33823 12.4299L7.79406 13.3449C7.86323 13.3884 7.9207 13.4481 7.96144 13.5189C8.00217 13.5898 8.02493 13.6695 8.02773 13.7511C8.03052 13.8328 8.01327 13.9139 7.97747 13.9873C7.94168 14.0607 7.88843 14.1243 7.8224 14.1724L6.49573 15.1416C7.2849 15.1907 8.03406 15.1557 8.65573 15.0324C12.5874 14.2474 15.2016 11.2891 15.2016 6.40906C15.2016 6.01073 14.3582 4.62489 12.7516 4.62489ZM8.66823 6.96656C8.68278 6.16327 8.93397 5.38212 9.39036 4.72091C9.84676 4.0597 10.4881 3.54782 11.234 3.24936C11.9799 2.9509 12.7973 2.87912 13.5838 3.04301C14.3704 3.2069 15.0911 3.59918 15.6557 4.17073C16.2482 4.16656 16.7524 4.31656 17.8799 3.63323C17.6007 4.99989 17.4632 5.59323 16.8682 6.40906C16.8682 12.7774 12.9541 15.8741 8.9824 16.6666C6.25906 17.2099 2.29906 16.3174 1.16406 15.1324C1.7424 15.0874 4.0924 14.8349 5.45073 13.8407C4.30156 13.0832 -0.272604 10.3916 2.73323 3.15489C4.14406 4.80239 5.5749 5.92406 7.0249 6.51906C7.9899 6.91489 8.22656 6.90656 8.66906 6.96739L8.66823 6.96656Z" fill="white" fill-opacity="0.9"/>
</g>
<defs>
<clipPath id="clip0_11_384">
<rect width="20" height="20" fill="white"/>
</clipPath>
</defs>
</svg>
